<svg width="25" height="26" viewBox="0 0 25 26" fill="none" xmlns="http://www.w3.org/2000/svg">
<path d="M12.5 3C6.9775 3 2.5 7.4775 2.5 13C2.5 17.2367 5.13583 20.855 8.85583 22.3117C8.76833 21.5208 8.68917 20.3067 8.89083 19.4433C9.0725 18.6633 10.0633 14.4725 10.0633 14.4725C10.0633 14.4725 9.76417 13.8733 9.76417 12.9883C9.76417 11.5975 10.57 10.56 11.5733 10.56C12.4267 10.56 12.8383 11.2008 12.8383 11.9683C12.8383 12.8267 12.2925 14.1092 12.01 15.2975C11.7742 16.2933 12.5092 17.105 13.4908 17.105C15.2683 17.105 16.6342 15.2308 16.6342 12.5258C16.6342 10.1317 14.9142 8.4575 12.4575 8.4575C9.6125 8.4575 7.9425 10.5917 7.9425 12.7975C7.9425 13.6567 8.27333 14.5783 8.68667 15.08C8.76833 15.1792 8.78 15.2658 8.75583 15.3667C8.68 15.6825 8.51167 16.3617 8.47833 16.5008C8.435 16.6842 8.33333 16.7225 8.14417 16.6342C6.895 16.0525 6.11417 14.2267 6.11417 12.76C6.11417 9.60583 8.40583 6.70833 12.7217 6.70833C16.1908 6.70833 18.8867 9.18 18.8867 12.4842C18.8867 15.9308 16.7133 18.7042 13.6975 18.7042C12.6842 18.7042 11.7317 18.1775 11.4058 17.5558C11.4058 17.5558 10.9042 19.465 10.7825 19.9333C10.5567 20.8017 9.9475 21.8908 9.53917 22.555C10.475 22.8433 11.4692 23 12.5 23C18.0225 23 22.5 18.5225 22.5 13C22.5 7.4775 18.0225 3 12.5 3Z" fill="white"/>
</svg>
