<svg width="146" height="52" viewBox="0 0 146 52" fill="none" xmlns="http://www.w3.org/2000/svg">
<path d="M140.275 0H74.663C71.6751 0 69.2529 2.42223 69.2529 5.41021V29.5839C69.2529 32.5719 71.6751 34.9941 74.663 34.9941H140.275C143.263 34.9941 145.686 32.5719 145.686 29.5839V5.41021C145.686 2.42223 143.263 0 140.275 0Z" fill="#ED1F24"/>
<path d="M1.8254 29.096C0.81702 27.9777 0.313477 26.3735 0.313477 24.2829V22.8076H4.14912V24.5778C4.14912 26.2502 4.84968 27.0857 6.25124 27.0857C6.9393 27.0857 7.46182 26.8831 7.81878 26.4769C8.17488 26.0713 8.3538 25.4138 8.3538 24.5037C8.3538 23.422 8.10763 22.4696 7.61615 21.6453C7.12382 20.8219 6.2146 19.8324 4.88676 18.6761C3.21446 17.2013 2.047 15.8678 1.38308 14.6749C0.719157 13.4824 0.387197 12.1364 0.387197 10.6361C0.387197 8.59555 0.903675 7.0159 1.9362 5.89669C2.96872 4.77835 4.46814 4.21875 6.43576 4.21875C8.40337 4.21875 9.84718 4.77835 10.8431 5.89669C11.8389 7.0159 12.3369 8.62012 12.3369 10.7098V11.7794H8.50124V10.452C8.50124 9.56687 8.32879 8.92148 7.98476 8.51536C7.6403 8.10967 7.13632 7.90704 6.4724 7.90704C5.11999 7.90704 4.444 8.73092 4.444 10.3783C4.444 11.3129 4.69577 12.1855 5.20018 12.9969C5.70372 13.8083 6.62028 14.7921 7.94768 15.9475C9.64413 17.4229 10.8116 18.7632 11.4514 19.9678C12.0903 21.1728 12.4102 22.5865 12.4102 24.2092C12.4102 26.3243 11.8877 27.9471 10.8426 29.0775C9.79717 30.2088 8.27921 30.774 6.28789 30.774C4.29656 30.774 2.83335 30.2152 1.8254 29.096Z" fill="#1F3864"/>
<path d="M14.7334 4.58984H18.7902V30.407H14.7334V4.58984Z" fill="#1F3864"/>
<path d="M25.3921 17.2033L20.9296 4.58984H25.2076L27.937 12.9248H28.0107L30.8134 4.58984H34.649L30.1865 17.2033L34.8702 30.407H30.5922L27.6417 21.4081H27.5679L24.5437 30.407H20.708L25.3917 17.2033H25.3921Z" fill="#1F3864"/>
<path d="M39.9601 8.27618H35.7188V4.58789H48.2582V8.27618H44.0169V30.405H39.9601V8.27618Z" fill="#1F3864"/>
<path d="M50.2109 4.58984H54.2677V15.1011H58.6194V4.58984H62.6762V30.407H58.6194V18.7894H54.2677V30.407H50.2109V4.58984Z" fill="#1F3864"/>
<path d="M74.3449 29.096C73.3365 27.9777 72.833 26.3735 72.833 24.2829V22.8076H76.6686V24.5778C76.6686 26.2502 77.3692 27.0857 78.7708 27.0857C79.4588 27.0857 79.9813 26.8831 80.3383 26.4769C80.6944 26.0713 80.8729 25.4138 80.8729 24.5037C80.8729 23.422 80.6267 22.4696 80.1357 21.6453C79.6434 20.8219 78.7341 19.8324 77.4063 18.6761C75.734 17.2013 74.5665 15.8678 73.9026 14.6749C73.2387 13.4824 72.9067 12.1364 72.9067 10.6361C72.9067 8.59555 73.4232 7.0159 74.4557 5.89669C75.4883 4.77835 76.9881 4.21875 78.9553 4.21875C80.9225 4.21875 82.3667 4.77835 83.3626 5.89669C84.3585 7.0159 84.8564 8.62012 84.8564 10.7098V11.7794H81.0208V10.452C81.0208 9.56687 80.8488 8.92148 80.5047 8.51536C80.1603 8.10967 79.6563 7.90704 78.9924 7.90704C77.64 7.90704 76.964 8.73092 76.964 10.3783C76.964 11.3129 77.2157 12.1855 77.7197 12.9969C78.2237 13.8083 79.1398 14.7921 80.4676 15.9475C82.1641 17.4229 83.3316 18.7632 83.9713 19.9678C84.6102 21.1728 84.9301 22.5865 84.9301 24.2092C84.9301 26.3243 84.4076 27.9471 83.3626 29.0775C82.3176 30.2088 80.7992 30.774 78.8078 30.774C76.8165 30.774 75.3533 30.2152 74.3449 29.096Z" fill="white"/>
<path d="M87.2529 4.58984H98.3171V8.27813H91.3097V15.1011H96.8785V18.7894H91.3097V26.7187H98.3171V30.407H87.2529V4.58984Z" fill="white"/>
<path d="M100.641 4.58984H105.73L109.676 20.0431H109.751V4.58984H113.365V30.407H109.197L104.329 11.5607H104.255V30.407H100.641V4.58984H100.641Z" fill="white"/>
<path d="M117.199 29.096C116.191 27.9777 115.687 26.3735 115.687 24.2829V22.8076H119.522V24.5778C119.522 26.2502 120.223 27.0857 121.624 27.0857C122.312 27.0857 122.835 26.8831 123.191 26.4769C123.548 26.0713 123.726 25.4138 123.726 24.5037C123.726 23.422 123.48 22.4696 122.988 21.6453C122.496 20.8219 121.587 19.8324 120.259 18.6761C118.587 17.2013 117.42 15.8678 116.756 14.6749C116.092 13.4824 115.76 12.1364 115.76 10.6361C115.76 8.59555 116.276 7.0159 117.309 5.89669C118.341 4.77835 119.841 4.21875 121.808 4.21875C123.776 4.21875 125.22 4.77835 126.216 5.89669C127.212 7.0159 127.709 8.62012 127.709 10.7098V11.7794H123.874V10.452C123.874 9.56687 123.701 8.92148 123.357 8.51536C123.013 8.10967 122.509 7.90704 121.845 7.90704C120.493 7.90704 119.817 8.73092 119.817 10.3783C119.817 11.3129 120.069 12.1855 120.573 12.9969C121.076 13.8083 121.993 14.7921 123.32 15.9475C125.017 17.4229 126.184 18.7632 126.824 19.9678C127.463 21.1728 127.783 22.5865 127.783 24.2092C127.783 26.3243 127.26 27.9471 126.215 29.0775C125.17 30.2088 123.652 30.774 121.661 30.774C119.669 30.774 118.206 30.2152 117.198 29.096H117.199Z" fill="white"/>
<path d="M130.107 4.58984H141.172V8.27813H134.164V15.1011H139.733V18.7894H134.164V26.7187H141.172V30.407H130.107V4.58984Z" fill="white"/>
<path d="M5.54286 50.1029V51.2208H0V43.0488H1.21316V50.1025H5.54286V50.1029Z" fill="#1F3864"/>
<path d="M16.1048 44.1676V46.4987H20.4345V47.6166H16.1048V50.1029H20.8983V51.2208H14.8916V43.0488H20.8983V44.1672H16.1048V44.1676Z" fill="#1F3864"/>
<path d="M36.2178 49.5554H31.9597L31.2462 51.2208H29.9141L33.4229 43.0488H34.7551L38.2639 51.2208H36.9318L36.2183 49.5554H36.2178ZM35.754 48.4733L34.0886 44.5953L32.4236 48.4733H35.754Z" fill="#1F3864"/>
<path d="M47.6953 43.0493H50.5144C53.155 43.0493 55.0342 44.7384 55.0342 47.129C55.0342 49.5196 53.155 51.2208 50.5144 51.2208H47.6953V43.0488V43.0493ZM50.5855 50.1271C52.4768 50.1271 53.7969 48.8897 53.7969 47.1294C53.7969 45.3692 52.4768 44.1439 50.5855 44.1439H48.8964V50.1271H50.5855Z" fill="#1F3864"/>
<path d="M65.9173 44.1676V46.4987H70.247V47.6166H65.9173V50.1029H70.7108V51.2208H64.7041V43.0488H70.7108V44.1672H65.9173V44.1676Z" fill="#1F3864"/>
<path d="M84.6867 48.259L86.7681 51.2208H85.3885L83.3903 48.378H81.5107V51.2208H80.3096V43.0488H83.7473C85.4718 43.0488 86.7802 44.1551 86.7802 45.7132C86.7802 46.9742 85.924 47.9378 84.6867 48.2586V48.259ZM81.5107 47.2596H83.5804C84.7583 47.2596 85.555 46.6768 85.555 45.7132C85.555 44.7496 84.7578 44.1672 83.5804 44.1672H81.5107V47.2596Z" fill="#1F3864"/>
<path d="M95.7949 50.0426L96.5205 49.1506C97.2461 49.8404 98.1023 50.2927 99.2085 50.2927C100.315 50.2927 100.921 49.6981 100.921 49.0437C100.921 48.2707 100.243 47.9732 98.8752 47.6641C97.2098 47.2713 96.104 46.7721 96.104 45.2972C96.104 43.9292 97.2935 42.8945 98.9352 42.8945C100.196 42.8945 101.136 43.3584 101.921 44.0482L101.231 44.9519C100.541 44.3216 99.7202 43.9525 98.8877 43.9525C97.9716 43.9525 97.3297 44.5354 97.3297 45.1898C97.3297 45.9512 98.0315 46.2125 99.3758 46.5337C101.005 46.9144 102.135 47.4615 102.135 48.9247C102.135 50.3043 101.089 51.3511 99.1619 51.3511C97.794 51.3511 96.664 50.8755 95.7958 50.0426H95.7949Z" fill="#1F3864"/>
<path d="M118.56 43.0488V51.2208H117.359V47.6166H112.898V51.2208H111.697V43.0488H112.898V46.4983H117.359V43.0488H118.56Z" fill="#1F3864"/>
<path d="M128.444 43.0488H129.645V51.2208H128.444V43.0488Z" fill="#1F3864"/>
<path d="M139.529 43.0493H142.967C144.691 43.0493 146 44.1555 146 45.7136C146 47.2717 144.691 48.378 142.967 48.378H140.731V51.2208H139.53V43.0488L139.529 43.0493ZM142.8 47.2601C143.978 47.2601 144.775 46.6772 144.775 45.7136C144.775 44.7501 143.978 44.1676 142.8 44.1676H140.73V47.2601H142.8Z" fill="#1F3864"/>
</svg>
