<svg width="144" height="55" viewBox="0 0 144 55" fill="none" xmlns="http://www.w3.org/2000/svg">
<path d="M138.046 0H73.3321C70.3853 0 67.9961 2.59411 67.9961 5.7945V31.6853C67.9961 34.8852 70.3853 37.4798 73.3321 37.4798H138.046C140.993 37.4798 143.382 34.8852 143.382 31.6853V5.7945C143.382 2.59411 140.993 0 138.046 0ZM81.9102 31.1432C80.8795 32.3548 79.3824 32.9602 77.4179 32.9602C75.4534 32.9602 74.0107 32.3617 73.0166 31.163C72.022 29.9653 71.5253 28.2471 71.5253 26.0081V24.4279H75.3084V26.3244C75.3084 28.1155 75.9994 29.0104 77.3818 29.0104C78.06 29.0104 78.5758 28.7929 78.9278 28.3584C79.2791 27.9239 79.4551 27.2197 79.4551 26.2454C79.4551 25.0869 79.2123 24.0664 78.7276 23.184C78.242 22.3021 77.3452 21.2423 76.0355 20.0039C74.3862 18.4243 73.2347 16.9961 72.5799 15.7184C71.9255 14.4412 71.5981 12.9992 71.5981 11.3928C71.5981 9.20729 72.107 7.51544 73.1258 6.31673C74.1442 5.11896 75.6231 4.51961 77.5633 4.51961C79.5036 4.51961 80.928 5.11896 81.9102 6.31673C82.8925 7.51544 83.3836 9.23361 83.3836 11.4717V12.6173H79.6005V11.1951C79.6005 10.2472 79.4304 9.55591 79.0911 9.1214C78.7514 8.6869 78.2547 8.46988 77.5999 8.46988C76.266 8.46988 75.5993 9.35228 75.5993 11.1162C75.5993 12.1172 75.8476 13.0518 76.3447 13.9208C76.8417 14.7898 77.7453 15.8436 79.055 17.081C80.7282 18.6612 81.8796 20.0967 82.5106 21.3864C83.1408 22.677 83.4563 24.1911 83.4563 25.9291C83.4563 28.1944 82.9405 29.9325 81.9102 31.1432ZM96.6604 8.86467H89.749V16.1723H95.2419V20.1226H89.749V28.6156H96.6604V32.5654H85.7478V4.9144H96.6604V8.86467ZM111.501 32.5654H107.391L102.589 12.3804H102.516V32.5654H98.9518V4.9144H103.971L107.863 21.4654H107.937V4.9144H111.501V32.5654ZM124.177 31.1432C123.146 32.3548 121.649 32.9602 119.685 32.9602C117.721 32.9602 116.277 32.3617 115.284 31.163C114.289 29.9653 113.792 28.2471 113.792 26.0081V24.4279H117.575V26.3244C117.575 28.1155 118.267 29.0104 119.649 29.0104C120.328 29.0104 120.843 28.7929 121.195 28.3584C121.546 27.9239 121.722 27.2197 121.722 26.2454C121.722 25.0869 121.479 24.0664 120.994 23.184C120.509 22.3021 119.612 21.2423 118.303 20.0039C116.653 18.4243 115.502 16.9961 114.847 15.7184C114.192 14.4412 113.865 12.9992 113.865 11.3928C113.865 9.20729 114.374 7.51544 115.393 6.31673C116.411 5.11896 117.89 4.51961 119.83 4.51961C121.771 4.51961 123.195 5.11896 124.177 6.31673C125.16 7.51544 125.651 9.23361 125.651 11.4717V12.6173H121.868V11.1951C121.868 10.2472 121.698 9.55591 121.358 9.1214C121.019 8.6869 120.522 8.46988 119.867 8.46988C118.533 8.46988 117.866 9.35228 117.866 11.1162C117.866 12.1172 118.115 13.0518 118.612 13.9208C119.109 14.7898 120.012 15.8436 121.322 17.081C122.995 18.6612 124.147 20.0967 124.778 21.3864C125.408 22.677 125.723 24.1911 125.723 25.9291C125.723 28.1944 125.208 29.9325 124.177 31.1432ZM138.927 8.86467H132.016V16.1723H137.509V20.1226H132.016V28.6156H138.927V32.5654H128.015V4.9144H138.927V8.86467Z" fill="white"/>
<path d="M1.49121 31.1619C0.496646 29.9641 0 28.246 0 26.007V24.4268H3.7831V26.3228C3.7831 28.1139 4.47406 29.0088 5.85642 29.0088C6.53506 29.0088 7.05041 28.7918 7.40249 28.3568C7.75371 27.9223 7.93017 27.2181 7.93017 26.2434C7.93017 25.0848 7.68738 24.0648 7.20264 23.182C6.71705 22.3 5.82028 21.2403 4.51063 20.0019C2.86124 18.4223 1.70977 16.9941 1.05495 15.7164C0.400124 14.4392 0.0727119 12.9976 0.0727119 11.3907C0.0727119 9.20526 0.582113 7.51341 1.60049 6.31471C2.61887 5.11693 4.09775 4.51758 6.03841 4.51758C7.97907 4.51758 9.4031 5.11693 10.3853 6.31471C11.3676 7.51341 11.8587 9.23158 11.8587 11.4697V12.6153H8.07559V11.1936C8.07559 10.2456 7.90551 9.55435 7.56619 9.11938C7.22645 8.68487 6.72938 8.46785 6.07455 8.46785C4.74067 8.46785 4.07394 9.35025 4.07394 11.1146C4.07394 12.1157 4.32226 13.0503 4.81976 13.9193C5.3164 14.7883 6.2204 15.842 7.52962 17.0795C9.20283 18.6596 10.3543 20.0952 10.9853 21.3853C11.6155 22.6759 11.931 24.19 11.931 25.928C11.931 28.1933 11.4156 29.9314 10.3849 31.1421C9.35378 32.3537 7.85661 32.9591 5.89256 32.9591C3.92852 32.9591 2.48535 32.3606 1.49121 31.1619Z" fill="white"/>
<path d="M14.2227 4.91406H18.2239V32.565H14.2227V4.91406Z" fill="white"/>
<path d="M24.7342 18.4235L20.3328 4.91406H24.5522L27.2442 13.8411H27.3169L30.0812 4.91406H33.8643L29.4629 18.4235L34.0824 32.565H29.8631L26.9529 22.9269H26.8802L23.8974 32.565H20.1143L24.7337 18.4235H24.7342Z" fill="white"/>
<path d="M39.1022 8.86434H34.9189V4.91406H47.2866V8.86434H43.1034V32.565H39.1022V8.86434Z" fill="white"/>
<path d="M49.2148 4.91406H53.2161V16.172H57.5081V4.91406H61.5094V32.565H57.5081V20.1223H53.2161V32.565H49.2148V4.91406Z" fill="white"/>
<path d="M5.46693 53.2016V54.399H0V45.6465H1.19654V53.2012H5.46693V53.2016Z" fill="white"/>
<path d="M15.885 46.8447V49.3414H20.1554V50.5387H15.885V53.2016H20.6129V54.399H14.6885V45.6465H20.6129V46.8443H15.885V46.8447Z" fill="white"/>
<path d="M35.7213 52.6152H31.5215L30.8178 54.399H29.5039L32.9647 45.6465H34.2786L37.7394 54.399H36.4255L35.7218 52.6152H35.7213ZM35.2638 51.4562L33.6212 47.3028L31.9791 51.4562H35.2638Z" fill="white"/>
<path d="M47.042 45.6469H49.8224C52.4269 45.6469 54.2803 47.4561 54.2803 50.0165C54.2803 52.5769 52.4269 54.399 49.8224 54.399H47.042V45.6465V45.6469ZM49.8926 53.2275C51.758 53.2275 53.06 51.9023 53.06 50.0169C53.06 48.1316 51.758 46.8193 49.8926 46.8193H48.2266V53.2275H49.8926Z" fill="white"/>
<path d="M65.0149 46.8447V49.3414H69.2853V50.5387H65.0149V53.2016H69.7428V54.399H63.8184V45.6465H69.7428V46.8443H65.0149V46.8447Z" fill="white"/>
<path d="M83.5261 51.2267L85.5791 54.399H84.2184L82.2475 51.3542H80.3936V54.399H79.209V45.6465H82.5996C84.3005 45.6465 85.591 46.8313 85.591 48.5001C85.591 49.8507 84.7465 50.8827 83.5261 51.2263V51.2267ZM80.3936 50.1564H82.435C83.5967 50.1564 84.3825 49.5321 84.3825 48.5001C84.3825 47.4681 83.5963 46.8443 82.435 46.8443H80.3936V50.1564Z" fill="white"/>
<path d="M94.4824 53.1363L95.198 52.1809C95.9137 52.9197 96.7581 53.4041 97.8492 53.4041C98.9403 53.4041 99.5386 52.7673 99.5386 52.0664C99.5386 51.2385 98.8697 50.9199 97.5205 50.5888C95.878 50.1681 94.7873 49.6334 94.7873 48.0538C94.7873 46.5887 95.9604 45.4805 97.5796 45.4805C98.8234 45.4805 99.7499 45.9773 100.524 46.7161L99.8439 47.6839C99.1636 47.0089 98.354 46.6136 97.5329 46.6136C96.6293 46.6136 95.9962 47.2379 95.9962 47.9388C95.9962 48.7543 96.6884 49.0341 98.0142 49.3781C99.6215 49.7858 100.736 50.3718 100.736 51.939C100.736 53.4166 99.7036 54.5377 97.8033 54.5377C96.4541 54.5377 95.3396 54.0284 94.4833 53.1363H94.4824Z" fill="white"/>
<path d="M116.937 45.6465V54.399H115.752V50.5387H111.353V54.399H110.168V45.6465H111.353V49.3409H115.752V45.6465H116.937Z" fill="white"/>
<path d="M126.685 45.6465H127.869V54.399H126.685V45.6465Z" fill="white"/>
<path d="M137.618 45.6469H141.009C142.71 45.6469 144 46.8318 144 48.5006C144 50.1693 142.71 51.3542 141.009 51.3542H138.803V54.399H137.619V45.6465L137.618 45.6469ZM140.844 50.1569C142.006 50.1569 142.792 49.5326 142.792 48.5006C142.792 47.4686 142.005 46.8447 140.844 46.8447H138.803V50.1569H140.844Z" fill="white"/>
</svg>
