<svg width="25" height="26" viewBox="0 0 25 26" fill="none" xmlns="http://www.w3.org/2000/svg">
<path d="M23.3335 6.27948C22.536 6.63365 21.6793 6.87198 20.7802 6.97948C21.6985 6.42948 22.4027 5.55865 22.7343 4.52031C21.876 5.02948 20.9243 5.39948 19.911 5.59948C19.1002 4.73531 17.9452 4.19531 16.6668 4.19531C14.2118 4.19531 12.2218 6.18615 12.2218 8.64031C12.2218 8.98865 12.2618 9.32865 12.3368 9.65281C8.64268 9.46781 5.36768 7.69781 3.17435 5.00781C2.79268 5.66448 2.57352 6.42781 2.57352 7.24365C2.57352 8.78531 3.35768 10.1461 4.55018 10.9428C3.82185 10.9195 3.13602 10.7195 2.53685 10.387C2.53685 10.4061 2.53685 10.4236 2.53685 10.4428C2.53685 12.597 4.06852 14.3936 6.10268 14.8011C5.73018 14.9028 5.33685 14.957 4.93102 14.957C4.64518 14.957 4.36602 14.9286 4.09518 14.8778C4.66102 16.6436 6.30268 17.9295 8.24768 17.9653C6.72685 19.1578 4.81018 19.8686 2.72685 19.8686C2.36852 19.8686 2.01435 19.8478 1.66602 19.8061C3.63352 21.067 5.96935 21.8028 8.48018 21.8028C16.6568 21.8028 21.1268 15.0295 21.1268 9.15531C21.1268 8.96281 21.1227 8.77115 21.1143 8.58031C21.9835 7.95281 22.7377 7.17031 23.3335 6.27948Z" fill="white"/>
</svg>
