<svg width="25" height="26" viewBox="0 0 25 26" fill="none" xmlns="http://www.w3.org/2000/svg">
<path d="M22.4492 7.75C22.25 6.65039 21.3008 5.84961 20.1992 5.59961C18.5508 5.25 15.5 5 12.1992 5C8.90039 5 5.80078 5.25 4.15039 5.59961C3.05078 5.84961 2.09961 6.59961 1.90039 7.75C1.69922 9 1.5 10.75 1.5 13C1.5 15.25 1.69922 17 1.94922 18.25C2.15039 19.3496 3.09961 20.1504 4.19922 20.4004C5.94922 20.75 8.94922 21 12.25 21C15.5508 21 18.5508 20.75 20.3008 20.4004C21.4004 20.1504 22.3496 19.4004 22.5508 18.25C22.75 17 23 15.1992 23.0508 13C22.9492 10.75 22.6992 9 22.4492 7.75ZM9.5 16.5V9.5L15.5996 13L9.5 16.5Z" fill="white"/>
</svg>
