<svg width="28" height="22" viewBox="0 0 28 22" fill="none" xmlns="http://www.w3.org/2000/svg">
<path d="M3.06891 21.666C2.35104 21.666 1.74342 21.421 1.24605 20.931C0.748684 20.441 0.5 19.8424 0.5 19.1352V3.19687C0.5 2.48963 0.748684 1.89102 1.24605 1.40102C1.74342 0.911016 2.35104 0.666016 3.06891 0.666016H24.9311C25.649 0.666016 26.2566 0.911016 26.7539 1.40102C27.2513 1.89102 27.5 2.48963 27.5 3.19687V19.1352C27.5 19.8424 27.2513 20.441 26.7539 20.931C26.2566 21.421 25.649 21.666 24.9311 21.666H3.06891ZM25.3684 4.78517L14.6913 11.5188C14.5822 11.5797 14.4692 11.6277 14.3524 11.6627C14.2359 11.6977 14.1184 11.7152 14 11.7152C13.8816 11.7152 13.7641 11.6977 13.6476 11.6627C13.5308 11.6277 13.4178 11.5797 13.3087 11.5188L2.63158 4.78517V19.1352C2.63158 19.2609 2.67255 19.3642 2.7545 19.4449C2.83645 19.5256 2.94125 19.566 3.06891 19.566H24.9311C25.0588 19.566 25.1636 19.5256 25.2455 19.4449C25.3274 19.3642 25.3684 19.2609 25.3684 19.1352V4.78517ZM14 9.76602L25.1499 2.76602H2.85007L14 9.76602ZM2.63158 5.10821V3.50767V3.54932V3.50487V5.10821Z" fill="#1F3864"/>
</svg>
