<svg width="22" height="27" viewBox="0 0 22 27" fill="none" xmlns="http://www.w3.org/2000/svg">
<path d="M11 24.909C13.851 22.3447 16.0328 19.8851 17.5453 17.5302C19.0578 15.1753 19.814 13.1128 19.814 11.3426C19.814 8.67336 18.9699 6.47903 17.2819 4.75959C15.5938 3.04014 13.4998 2.18042 11 2.18042C8.50018 2.18042 6.40622 3.04014 4.71814 4.75959C3.03005 6.47903 2.18601 8.67336 2.18601 11.3426C2.18601 13.1128 2.94225 15.1753 4.45472 17.5302C5.9672 19.8851 8.14896 22.3447 11 24.909ZM11 26.998C10.7161 26.998 10.4321 26.9489 10.1482 26.8505C9.864 26.7519 9.60703 26.5994 9.37725 26.393C8.06953 25.1821 6.84573 23.9351 5.70585 22.652C4.56621 21.3691 3.57558 20.0866 2.73397 18.8044C1.89211 17.5223 1.22599 16.2515 0.735592 14.9921C0.245198 13.7324 0 12.5159 0 11.3426C0 7.96372 1.08778 5.22825 3.26335 3.13617C5.43916 1.04409 8.01804 -0.00195312 11 -0.00195312C13.982 -0.00195312 16.5608 1.04409 18.7367 3.13617C20.9122 5.22825 22 7.96372 22 11.3426C22 12.5159 21.7548 13.7299 21.2644 14.9847C20.774 16.2398 20.1103 17.5107 19.2733 18.7975C18.4361 20.0843 17.4476 21.3668 16.308 22.645C15.1684 23.9235 13.9446 25.1681 12.6366 26.3787C12.4102 26.5851 12.1529 26.74 11.8646 26.8432C11.5765 26.9464 11.2883 26.998 11 26.998ZM11.0026 13.7105C11.7276 13.7105 12.3474 13.4511 12.8621 12.9323C13.377 12.4135 13.6345 11.7899 13.6345 11.0615C13.6345 10.333 13.3763 9.71013 12.8599 9.19278C12.3435 8.67568 11.7227 8.41713 10.9974 8.41713C10.2724 8.41713 9.65257 8.67654 9.13789 9.19535C8.62296 9.71416 8.36549 10.3379 8.36549 11.0666C8.36549 11.795 8.62369 12.4178 9.14007 12.9349C9.65646 13.452 10.2773 13.7105 11.0026 13.7105Z" fill="#1F3864"/>
</svg>
