<svg width="29" height="29" viewBox="0 0 29 29" fill="none" xmlns="http://www.w3.org/2000/svg">
<path d="M26.5671 28.9993C23.4263 28.9993 20.2708 28.2691 17.1008 26.8085C13.9311 25.348 11.0188 23.2877 8.36375 20.6277C5.70903 17.9674 3.65139 15.0549 2.19083 11.8902C0.730278 8.72574 0 5.5731 0 2.43227C0 1.92754 0.166667 1.50699 0.5 1.1706C0.833333 0.834209 1.25 0.666016 1.75 0.666016H7.18583C7.60667 0.666016 7.97792 0.803377 8.29958 1.0781C8.62125 1.35254 8.82583 1.69171 8.91333 2.0956L9.86875 6.99935C9.93486 7.45435 9.92097 7.84532 9.82708 8.17227C9.73292 8.49921 9.56403 8.77379 9.32042 8.99602L5.47125 12.7431C6.09069 13.8775 6.79847 14.9507 7.59458 15.9627C8.39042 16.9743 9.25208 17.9406 10.1796 18.8614C11.094 19.7762 12.0662 20.6256 13.0963 21.4098C14.1263 22.1939 15.2385 22.9237 16.4329 23.5989L20.1729 19.8264C20.4338 19.555 20.7496 19.3648 21.1204 19.2556C21.491 19.1467 21.8761 19.12 22.2758 19.1756L26.9038 20.1181C27.3246 20.2292 27.6681 20.4439 27.9342 20.7623C28.2003 21.0806 28.3333 21.4417 28.3333 21.8456V27.2493C28.3333 27.7493 28.1651 28.166 27.8288 28.4993C27.4924 28.8327 27.0718 28.9993 26.5671 28.9993ZM4.28833 10.3777L7.26292 7.53143C7.31625 7.48866 7.35097 7.4299 7.36708 7.35518C7.38319 7.28046 7.38056 7.21101 7.35917 7.14685L6.63458 3.42227C6.61319 3.33699 6.57583 3.27296 6.5225 3.23018C6.46917 3.1874 6.39972 3.16602 6.31417 3.16602H2.75C2.68583 3.16602 2.63236 3.1874 2.58958 3.23018C2.54708 3.27296 2.52583 3.32643 2.52583 3.3906C2.61111 4.52949 2.7975 5.68643 3.085 6.86143C3.37222 8.03671 3.77333 9.20879 4.28833 10.3777ZM18.7883 24.7814C19.8931 25.2964 21.0453 25.6902 22.245 25.9627C23.445 26.2349 24.5662 26.3967 25.6087 26.4481C25.6729 26.4481 25.7264 26.4267 25.7692 26.3839C25.8119 26.3412 25.8333 26.2877 25.8333 26.2235V22.7173C25.8333 22.6317 25.8119 22.5623 25.7692 22.5089C25.7264 22.4556 25.6624 22.4182 25.5771 22.3969L22.0771 21.6852C22.0129 21.6638 21.9568 21.6612 21.9088 21.6773C21.8607 21.6934 21.8099 21.7281 21.7563 21.7814L18.7883 24.7814Z" fill="#1F3864"/>
</svg>
