<svg width="21" height="21" viewBox="0 0 21 21" fill="none" xmlns="http://www.w3.org/2000/svg">
<path d="M10.5 0.166016C4.9775 0.166016 0.5 4.64352 0.5 10.166C0.5 14.4027 3.13583 18.021 6.85583 19.4777C6.76833 18.6868 6.68917 17.4727 6.89083 16.6093C7.0725 15.8293 8.06333 11.6385 8.06333 11.6385C8.06333 11.6385 7.76417 11.0393 7.76417 10.1543C7.76417 8.76352 8.57 7.72602 9.57333 7.72602C10.4267 7.72602 10.8383 8.36685 10.8383 9.13435C10.8383 9.99268 10.2925 11.2752 10.01 12.4635C9.77417 13.4593 10.5092 14.271 11.4908 14.271C13.2683 14.271 14.6342 12.3968 14.6342 9.69185C14.6342 7.29768 12.9142 5.62352 10.4575 5.62352C7.6125 5.62352 5.9425 7.75768 5.9425 9.96352C5.9425 10.8227 6.27333 11.7443 6.68667 12.246C6.76833 12.3452 6.78 12.4318 6.75583 12.5327C6.68 12.8485 6.51167 13.5277 6.47833 13.6668C6.435 13.8502 6.33333 13.8885 6.14417 13.8002C4.895 13.2185 4.11417 11.3927 4.11417 9.92601C4.11417 6.77185 6.40583 3.87435 10.7217 3.87435C14.1908 3.87435 16.8867 6.34601 16.8867 9.65018C16.8867 13.0968 14.7133 15.8702 11.6975 15.8702C10.6842 15.8702 9.73167 15.3435 9.40583 14.7218C9.40583 14.7218 8.90417 16.631 8.7825 17.0993C8.55667 17.9677 7.9475 19.0568 7.53917 19.721C8.475 20.0093 9.46917 20.166 10.5 20.166C16.0225 20.166 20.5 15.6885 20.5 10.166C20.5 4.64352 16.0225 0.166016 10.5 0.166016Z" fill="#333333"/>
</svg>
