<svg width="23" height="18" viewBox="0 0 23 18" fill="none" xmlns="http://www.w3.org/2000/svg">
<path d="M22.3335 2.44549C21.536 2.79966 20.6793 3.038 19.7802 3.14549C20.6985 2.59549 21.4027 1.72466 21.7343 0.686328C20.876 1.1955 19.9243 1.56549 18.911 1.76549C18.1002 0.901328 16.9452 0.361328 15.6668 0.361328C13.2118 0.361328 11.2218 2.35216 11.2218 4.80633C11.2218 5.15466 11.2618 5.49466 11.3368 5.81883C7.64268 5.63383 4.36768 3.86383 2.17435 1.17383C1.79268 1.83049 1.57352 2.59383 1.57352 3.40966C1.57352 4.95133 2.35768 6.31216 3.55018 7.10883C2.82185 7.08549 2.13602 6.8855 1.53685 6.553C1.53685 6.57216 1.53685 6.58966 1.53685 6.60883C1.53685 8.76299 3.06852 10.5597 5.10268 10.9672C4.73018 11.0688 4.33685 11.123 3.93102 11.123C3.64518 11.123 3.36602 11.0947 3.09518 11.0438C3.66102 12.8097 5.30268 14.0955 7.24768 14.1313C5.72685 15.3238 3.81018 16.0347 1.72685 16.0347C1.36852 16.0347 1.01435 16.0138 0.666016 15.9722C2.63352 17.233 4.96935 17.9688 7.48018 17.9688C15.6568 17.9688 20.1268 11.1955 20.1268 5.32133C20.1268 5.12883 20.1227 4.93716 20.1143 4.74633C20.9835 4.11883 21.7377 3.33633 22.3335 2.44549Z" fill="#333333"/>
</svg>
