<svg width="26" height="28" viewBox="0 0 26 28" fill="none" xmlns="http://www.w3.org/2000/svg">
<path d="M21.5375 27.666C20.4368 27.666 19.5022 27.2941 18.7338 26.5501C17.9657 25.8062 17.5816 24.9029 17.5816 23.8402C17.5816 23.6981 17.6325 23.3528 17.7342 22.8042L7.2761 16.855C6.92169 17.2103 6.50061 17.4886 6.01287 17.6899C5.52512 17.8912 5.00257 17.9918 4.44522 17.9918C3.34939 17.9918 2.41789 17.6183 1.65074 16.8713C0.883579 16.1243 0.5 15.2226 0.5 14.166C0.5 13.1095 0.883579 12.2077 1.65074 11.4607C2.41789 10.7137 3.34939 10.3402 4.44522 10.3402C5.00257 10.3402 5.52512 10.4408 6.01287 10.6422C6.50061 10.8435 6.92169 11.1218 7.2761 11.477L17.7342 5.54129C17.6759 5.3665 17.6358 5.19527 17.614 5.02758C17.5924 4.8599 17.5816 4.68132 17.5816 4.49184C17.5816 3.42913 17.9668 2.52582 18.7371 1.7819C19.5077 1.03798 20.4434 0.666016 21.5441 0.666016C22.6449 0.666016 23.5793 1.03833 24.3474 1.78296C25.1158 2.52736 25.5 3.43139 25.5 4.49504C25.5 5.5587 25.1151 6.46178 24.3452 7.20428C23.5754 7.94654 22.6406 8.31767 21.5408 8.31767C20.9808 8.31767 20.4599 8.21477 19.9783 8.00895C19.4964 7.80313 19.0783 7.52259 18.7239 7.16733L8.26581 13.1166C8.32414 13.2916 8.36422 13.4628 8.38603 13.6303C8.4076 13.798 8.41838 13.9765 8.41838 14.166C8.41838 14.3555 8.4076 14.5341 8.38603 14.7018C8.36422 14.8692 8.32414 15.0404 8.26581 15.2155L18.7239 21.1647C19.0783 20.8094 19.4964 20.5289 19.9783 20.3231C20.4599 20.1173 20.9808 20.0144 21.5408 20.0144C22.6406 20.0144 23.5754 20.3866 24.3452 21.1309C25.1151 21.8756 25.5 22.7797 25.5 23.8434C25.5 24.907 25.1147 25.81 24.3441 26.5523C23.5738 27.2948 22.6382 27.666 21.5375 27.666ZM21.5408 25.5344C22.0376 25.5344 22.454 25.3721 22.7901 25.0474C23.1261 24.7227 23.2941 24.3203 23.2941 23.8402C23.2941 23.3601 23.1261 22.9577 22.7901 22.633C22.454 22.3081 22.0376 22.1456 21.5408 22.1456C21.044 22.1456 20.6276 22.3081 20.2915 22.633C19.9553 22.9577 19.7871 23.3601 19.7871 23.8402C19.7871 24.3203 19.9553 24.7227 20.2915 25.0474C20.6276 25.3721 21.044 25.5344 21.5408 25.5344ZM4.44522 15.8603C4.94596 15.8603 5.36569 15.6979 5.70441 15.3732C6.04338 15.0485 6.21287 14.6461 6.21287 14.166C6.21287 13.6859 6.04338 13.2835 5.70441 12.9588C5.36569 12.6341 4.94596 12.4718 4.44522 12.4718C3.95233 12.4718 3.53922 12.6341 3.20588 12.9588C2.87255 13.2835 2.70588 13.6859 2.70588 14.166C2.70588 14.6461 2.87255 15.0485 3.20588 15.3732C3.53922 15.6979 3.95233 15.8603 4.44522 15.8603ZM21.5408 6.18645C22.0376 6.18645 22.454 6.02398 22.7901 5.69903C23.1261 5.37432 23.2941 4.97192 23.2941 4.49184C23.2941 4.01177 23.1261 3.60937 22.7901 3.28466C22.454 2.95995 22.0376 2.79759 21.5408 2.79759C21.044 2.79759 20.6276 2.95995 20.2915 3.28466C19.9553 3.60937 19.7871 4.01177 19.7871 4.49184C19.7871 4.97192 19.9553 5.37432 20.2915 5.69903C20.6276 6.02398 21.044 6.18645 21.5408 6.18645Z" fill="#1F3864"/>
</svg>
