<svg width="38" height="38" viewBox="0 0 38 38" fill="none" xmlns="http://www.w3.org/2000/svg">
<path d="M19 32.332C17.1491 32.332 15.4024 31.9772 13.7599 31.2677C12.1174 30.5581 10.6849 29.592 9.4626 28.3694C8.24003 27.1471 7.27395 25.7147 6.56437 24.0722C5.85479 22.4297 5.5 20.683 5.5 18.832C5.5 16.9664 5.85479 15.216 6.56437 13.5809C7.27395 11.9457 8.24003 10.517 9.4626 9.29464C10.6849 8.07206 12.1174 7.10598 13.7599 6.3964C15.4024 5.68682 17.1491 5.33203 19 5.33203C20.8656 5.33203 22.616 5.68682 24.2511 6.3964C25.8863 7.10598 27.3151 8.07206 28.5374 9.29464C29.76 10.517 30.7261 11.9457 31.4356 13.5809C32.1452 15.216 32.5 16.9664 32.5 18.832C32.5 20.683 32.1452 22.4297 31.4356 24.0722C30.7261 25.7147 29.76 27.1471 28.5374 28.3694C27.3151 29.592 25.8863 30.5581 24.2511 31.2677C22.616 31.9772 20.8656 32.332 19 32.332ZM19 30.1703C19.7252 29.2084 20.3356 28.2383 20.831 27.2599C21.3265 26.2815 21.7301 25.2121 22.0418 24.0516H15.9582C16.2882 25.2486 16.6964 26.3363 17.1828 27.3147C17.6691 28.293 18.2748 29.2449 19 30.1703ZM16.2481 29.7795C15.7034 28.9979 15.2142 28.1094 14.7805 27.1139C14.3469 26.1182 14.0099 25.0975 13.7695 24.0516H8.94889C9.69945 25.5273 10.706 26.7672 11.9686 27.7712C13.2312 28.7749 14.6577 29.4443 16.2481 29.7795ZM21.7519 29.7795C23.3423 29.4443 24.7688 28.7749 26.0314 27.7712C27.294 26.7672 28.3006 25.5273 29.0511 24.0516H24.2305C23.9444 25.1065 23.5846 26.1317 23.1509 27.1274C22.7175 28.1231 22.2511 29.0071 21.7519 29.7795ZM8.05505 21.92H13.3378C13.2485 21.3918 13.1838 20.874 13.1435 20.3664C13.1035 19.8591 13.0834 19.3476 13.0834 18.832C13.0834 18.3164 13.1035 17.805 13.1435 17.2977C13.1838 16.7901 13.2485 16.2722 13.3378 15.7441H8.05505C7.91839 16.2268 7.81371 16.7286 7.741 17.2497C7.66805 17.7707 7.63158 18.2982 7.63158 18.832C7.63158 19.3659 7.66805 19.8933 7.741 20.4144C7.81371 20.9354 7.91839 21.4373 8.05505 21.92ZM15.469 21.92H22.531C22.62 21.3918 22.6847 20.8786 22.7249 20.3803C22.765 19.882 22.785 19.3659 22.785 18.832C22.785 18.2982 22.765 17.7821 22.7249 17.2838C22.6847 16.7855 22.62 16.2722 22.531 15.7441H15.469C15.38 16.2722 15.3153 16.7855 15.2751 17.2838C15.235 17.7821 15.215 18.2982 15.215 18.832C15.215 19.3659 15.235 19.882 15.2751 20.3803C15.3153 20.8786 15.38 21.3918 15.469 21.92ZM24.6622 21.92H29.9449C30.0816 21.4373 30.1863 20.9354 30.259 20.4144C30.3319 19.8933 30.3684 19.3659 30.3684 18.832C30.3684 18.2982 30.3319 17.7707 30.259 17.2497C30.1863 16.7286 30.0816 16.2268 29.9449 15.7441H24.6622C24.7515 16.2722 24.8162 16.7901 24.8565 17.2977C24.8965 17.805 24.9166 18.3164 24.9166 18.832C24.9166 19.3476 24.8965 19.8591 24.8565 20.3664C24.8162 20.874 24.7515 21.3918 24.6622 21.92ZM24.2305 13.6125H29.0511C28.2916 12.1185 27.2918 10.8786 26.052 9.8929C24.8121 8.9074 23.3787 8.23335 21.7519 7.87074C22.2966 8.6978 22.7812 9.60241 23.2056 10.5846C23.6303 11.5665 23.9719 12.5758 24.2305 13.6125ZM15.9582 13.6125H22.0418C21.7118 12.4245 21.2969 11.3299 20.7969 10.3288C20.2967 9.32768 19.6977 8.38268 19 7.49381C18.3023 8.38268 17.7033 9.32768 17.2031 10.3288C16.7031 11.3299 16.2882 12.4245 15.9582 13.6125ZM8.94889 13.6125H13.7695C14.0281 12.5758 14.3697 11.5665 14.7944 10.5846C15.2188 9.60241 15.7034 8.6978 16.2481 7.87074C14.612 8.23335 13.1764 8.90977 11.9413 9.90001C10.7059 10.89 9.70845 12.1275 8.94889 13.6125Z" fill="#1F3864"/>
</svg>
