<svg width="23" height="17" viewBox="0 0 23 17" fill="none" xmlns="http://www.w3.org/2000/svg">
<path d="M21.4492 2.91602C21.25 1.81641 20.3008 1.01562 19.1992 0.765625C17.5508 0.416016 14.5 0.166016 11.1992 0.166016C7.90039 0.166016 4.80078 0.416016 3.15039 0.765625C2.05078 1.01562 1.09961 1.76563 0.900391 2.91602C0.699219 4.16602 0.5 5.91602 0.5 8.16602C0.5 10.416 0.699219 12.166 0.949219 13.416C1.15039 14.5156 2.09961 15.3164 3.19922 15.5664C4.94922 15.916 7.94922 16.166 11.25 16.166C14.5508 16.166 17.5508 15.916 19.3008 15.5664C20.4004 15.3164 21.3496 14.5664 21.5508 13.416C21.75 12.166 22 10.3652 22.0508 8.16602C21.9492 5.91602 21.6992 4.16602 21.4492 2.91602ZM8.5 11.666V4.66602L14.5996 8.16602L8.5 11.666Z" fill="#333333"/>
</svg>
