<svg width="50" height="51" viewBox="0 0 50 51" fill="none" xmlns="http://www.w3.org/2000/svg">
<rect x="49.5" y="50" width="49" height="49" transform="rotate(180 49.5 50)" stroke="#1F3864"/>
<path d="M22.5058 25.4941L29.8558 32.8441C30.1058 33.0941 30.2267 33.39 30.2183 33.7316C30.21 34.0733 30.0808 34.3691 29.8308 34.6191C29.5808 34.8691 29.285 34.9941 28.9433 34.9941C28.6017 34.9941 28.3058 34.8691 28.0558 34.6191L20.3808 26.9191C20.1808 26.7191 20.0308 26.4941 19.9308 26.2441C19.8308 25.9941 19.7808 25.7441 19.7808 25.4941C19.7808 25.2441 19.8308 24.9941 19.9308 24.7441C20.0308 24.4941 20.1808 24.2691 20.3808 24.0691L28.0808 16.3691C28.3308 16.1191 28.6225 15.9983 28.9558 16.0066C29.2892 16.015 29.5808 16.1441 29.8308 16.3941C30.0808 16.6441 30.2058 16.94 30.2058 17.2816C30.2058 17.6233 30.0808 17.9191 29.8308 18.1691L22.5058 25.4941Z" fill="#003366"/>
</svg>
