<svg width="11" height="19" viewBox="0 0 11 19" fill="none" xmlns="http://www.w3.org/2000/svg">
<path d="M7.99415 9.50586L0.644153 2.15586C0.394153 1.90586 0.27332 1.61003 0.281653 1.26836C0.289987 0.926693 0.419153 0.630859 0.669153 0.380859C0.919153 0.130859 1.21499 0.00585938 1.55665 0.00585938C1.89832 0.00585938 2.19415 0.130859 2.44415 0.380859L10.1192 8.08086C10.3192 8.28086 10.4692 8.50586 10.5692 8.75586C10.6692 9.00586 10.7192 9.25586 10.7192 9.50586C10.7192 9.75586 10.6692 10.0059 10.5692 10.2559C10.4692 10.5059 10.3192 10.7309 10.1192 10.9309L2.41915 18.6309C2.16915 18.8809 1.87749 19.0017 1.54415 18.9934C1.21082 18.985 0.919153 18.8559 0.669153 18.6059C0.419153 18.3559 0.294153 18.06 0.294153 17.7184C0.294153 17.3767 0.419153 17.0809 0.669153 16.8309L7.99415 9.50586Z" fill="#1F3864"/>
</svg>
