<svg width="50" height="51" viewBox="0 0 50 51" fill="none" xmlns="http://www.w3.org/2000/svg">
<rect width="50" height="50" transform="translate(0 0.5)" fill="#1F3864"/>
<path d="M27.4942 25.5059L20.1442 18.1559C19.8942 17.9059 19.7733 17.61 19.7817 17.2684C19.79 16.9267 19.9192 16.6309 20.1692 16.3809C20.4192 16.1309 20.715 16.0059 21.0567 16.0059C21.3983 16.0059 21.6942 16.1309 21.9442 16.3809L29.6192 24.0809C29.8192 24.2809 29.9692 24.5059 30.0692 24.7559C30.1692 25.0059 30.2192 25.2559 30.2192 25.5059C30.2192 25.7559 30.1692 26.0059 30.0692 26.2559C29.9692 26.5059 29.8192 26.7309 29.6192 26.9309L21.9192 34.6309C21.6692 34.8809 21.3775 35.0017 21.0442 34.9934C20.7108 34.985 20.4192 34.8559 20.1692 34.6059C19.9192 34.3559 19.7942 34.06 19.7942 33.7184C19.7942 33.3767 19.9192 33.0809 20.1692 32.8309L27.4942 25.5059Z" fill="white"/>
</svg>
